<svg width="31" height="23" viewBox="0 0 31 23" fill="none" xmlns="http://www.w3.org/2000/svg">
<path d="M16.2164 3.79911C16.8146 3.43973 17.2135 2.78772 17.2135 2.05357C17.2135 0.918973 16.2741 0 15.1143 0C13.9545 0 13.0151 0.918973 13.0151 2.05357C13.0151 2.79286 13.4139 3.43973 14.0122 3.79911L11.0051 9.68259C10.5275 10.617 9.28899 10.8839 8.45455 10.2319L3.77857 6.57143C4.04097 6.22746 4.19841 5.80134 4.19841 5.33929C4.19841 4.20469 3.25902 3.28571 2.09921 3.28571C0.939395 3.28571 0 4.20469 0 5.33929C0 6.47388 0.939395 7.39286 2.09921 7.39286C2.1097 7.39286 2.12545 7.39286 2.13594 7.39286L4.53429 20.2996C4.82293 21.8603 6.21365 23 7.84054 23H22.388C24.0097 23 25.4004 21.8654 25.6943 20.2996L28.0926 7.39286C28.1031 7.39286 28.1189 7.39286 28.1294 7.39286C29.2892 7.39286 30.2286 6.47388 30.2286 5.33929C30.2286 4.20469 29.2892 3.28571 28.1294 3.28571C26.9696 3.28571 26.0302 4.20469 26.0302 5.33929C26.0302 5.80134 26.1876 6.22746 26.45 6.57143L21.774 10.2319C20.9396 10.8839 19.7011 10.617 19.2235 9.68259L16.2164 3.79911Z" fill="#FFF700"/>
</svg>
