<svg width="29" height="29" viewBox="0 0 29 29" fill="none" xmlns="http://www.w3.org/2000/svg">
<path d="M26.2585 2.74152C25.0198 1.50283 23.0115 1.50283 21.7728 2.74152L20.3746 4.13974L24.8603 8.62545L26.2585 7.22723C27.4972 5.98854 27.4972 3.98022 26.2585 2.74152Z" fill="#003B71"/>
<path d="M23.5786 9.90708L19.0929 5.42137L8.9419 15.5724C8.19661 16.3177 7.64877 17.2369 7.34787 18.247L6.38147 21.4913C6.28647 21.8102 6.37389 22.1555 6.60919 22.3908C6.84449 22.6261 7.18981 22.7135 7.50873 22.6185L10.753 21.6521C11.7631 21.3512 12.6823 20.8034 13.4276 20.0581L23.5786 9.90708Z" fill="#003B71"/>
<path d="M6.34375 6.34374C4.34172 6.34374 2.71875 7.96671 2.71875 9.96874V22.6562C2.71875 24.6583 4.34172 26.2812 6.34375 26.2812H19.0312C21.0333 26.2812 22.6562 24.6583 22.6562 22.6562V16.3125C22.6562 15.812 22.2505 15.4062 21.75 15.4062C21.2495 15.4062 20.8438 15.812 20.8438 16.3125V22.6562C20.8438 23.6573 20.0323 24.4687 19.0312 24.4687H6.34375C5.34273 24.4687 4.53125 23.6573 4.53125 22.6562V9.96874C4.53125 8.96772 5.34273 8.15624 6.34375 8.15624H12.6875C13.188 8.15624 13.5938 7.7505 13.5938 7.24999C13.5938 6.74948 13.188 6.34374 12.6875 6.34374H6.34375Z" fill="#003B71"/>
</svg>
