<svg width="28" height="28" viewBox="0 0 28 28" fill="none" xmlns="http://www.w3.org/2000/svg">
<path fill-rule="evenodd" clip-rule="evenodd" d="M19.2501 5.22455V5.48914C20.364 5.5911 21.4686 5.72519 22.5631 5.89047C22.9683 5.95167 23.3721 6.01714 23.7745 6.08685C24.2506 6.16933 24.5698 6.62219 24.4873 7.09835C24.4048 7.57451 23.952 7.89365 23.4758 7.81117C23.3946 7.7971 23.3133 7.78321 23.232 7.7695L22.059 23.0184C21.9187 24.8419 20.3982 26.25 18.5693 26.25H9.43097C7.6021 26.25 6.08155 24.8419 5.94128 23.0184L4.76829 7.7695C4.68696 7.78321 4.60569 7.7971 4.52449 7.81117C4.04833 7.89365 3.59546 7.57451 3.51298 7.09835C3.4305 6.62219 3.74964 6.16933 4.2258 6.08685C4.62818 6.01714 5.032 5.95167 5.43723 5.89047C6.53168 5.72519 7.6363 5.5911 8.75014 5.48914V5.22455C8.75014 3.39933 10.1648 1.84121 12.0348 1.78139C12.6874 1.76052 13.3426 1.75 14.0001 1.75C14.6577 1.75 15.3129 1.76052 15.9655 1.78139C17.8355 1.84121 19.2501 3.39933 19.2501 5.22455ZM12.0908 3.5305C12.7247 3.51022 13.3612 3.5 14.0001 3.5C14.6391 3.5 15.2756 3.51022 15.9095 3.5305C16.7899 3.55866 17.5001 4.29792 17.5001 5.22455V5.35596C16.3424 5.28566 15.1754 5.25 14.0001 5.25C12.8249 5.25 11.6579 5.28566 10.5001 5.35596V5.22455C10.5001 4.29792 11.2104 3.55866 12.0908 3.5305ZM11.6768 10.4664C11.6583 9.98348 11.2518 9.60707 10.7689 9.62565C10.286 9.64422 9.90956 10.0507 9.92814 10.5336L10.332 21.0336C10.3506 21.5165 10.7571 21.8929 11.24 21.8744C11.7229 21.8558 12.0993 21.4493 12.0807 20.9664L11.6768 10.4664ZM18.0711 10.5336C18.0896 10.0507 17.7132 9.64422 17.2303 9.62565C16.7475 9.60707 16.3409 9.98348 16.3224 10.4664L15.9185 20.9664C15.8999 21.4493 16.2764 21.8558 16.7592 21.8744C17.2421 21.8929 17.6487 21.5165 17.6672 21.0336L18.0711 10.5336Z" fill="#003B71"/>
</svg>
