<svg width="28" height="28" viewBox="0 0 28 28" fill="none" xmlns="http://www.w3.org/2000/svg">
<path fill-rule="evenodd" clip-rule="evenodd" d="M2.625 14C2.625 7.71776 7.71776 2.625 14 2.625C20.2822 2.625 25.375 7.71776 25.375 14C25.375 20.2822 20.2822 25.375 14 25.375C7.71776 25.375 2.625 20.2822 2.625 14ZM15.8989 9.43049C14.862 8.52317 13.1385 8.52317 12.1016 9.43049C11.7379 9.74871 11.1851 9.71186 10.8669 9.34818C10.5487 8.98449 10.5855 8.4317 10.9492 8.11348C12.6459 6.62884 15.3546 6.62884 17.0513 8.11348C18.8166 9.65807 18.8166 12.2169 17.0513 13.7615C16.7519 14.0235 16.4221 14.2381 16.0744 14.4064C15.2854 14.7883 14.8753 15.3092 14.8753 15.75V16.625C14.8753 17.1082 14.4835 17.5 14.0003 17.5C13.517 17.5 13.1253 17.1082 13.1253 16.625V15.75C13.1253 14.2578 14.3611 13.2914 15.312 12.8312C15.5251 12.7281 15.7226 12.5988 15.8989 12.4445C16.8674 11.5971 16.8674 10.2779 15.8989 9.43049ZM14 21C14.4832 21 14.875 20.6082 14.875 20.125C14.875 19.6418 14.4832 19.25 14 19.25C13.5168 19.25 13.125 19.6418 13.125 20.125C13.125 20.6082 13.5168 21 14 21Z" fill="#0F172A"/>
</svg>
