<svg width="40" height="47" viewBox="0 0 40 47" fill="none" xmlns="http://www.w3.org/2000/svg">
<path fill-rule="evenodd" clip-rule="evenodd" d="M29.9999 6.66547V7.17304C32.1214 7.36865 34.2255 7.62588 36.3101 7.94295C37.0819 8.06035 37.8511 8.18595 38.6175 8.31966C39.5245 8.47789 40.1324 9.34666 39.9753 10.2601C39.8182 11.1736 38.9556 11.7858 38.0486 11.6275C37.8939 11.6006 37.7392 11.5739 37.5842 11.5476L35.35 40.8007C35.0828 44.2988 32.1866 47 28.7031 47H11.2969C7.81341 47 4.91718 44.2988 4.65 40.8007L2.41576 11.5476C2.26085 11.5739 2.10606 11.6006 1.95138 11.6275C1.04443 11.7858 0.181834 11.1736 0.0247286 10.2601C-0.132377 9.34666 0.475496 8.47789 1.38245 8.31966C2.14888 8.18595 2.91806 8.06035 3.6899 7.94295C5.77454 7.62588 7.87855 7.36865 10.0001 7.17304V6.66547C10.0001 3.16403 12.6946 0.17498 16.2566 0.0602206C17.4996 0.0201739 18.7475 0 20 0C21.2525 0 22.5004 0.0201739 23.7434 0.0602206C27.3054 0.17498 29.9999 3.16403 29.9999 6.66547ZM16.3631 3.41565C17.5706 3.37674 18.783 3.35714 20 3.35714C21.217 3.35714 22.4294 3.37674 23.6369 3.41565C25.3137 3.46967 26.6666 4.88785 26.6666 6.66547V6.91756C24.4614 6.78269 22.2385 6.71429 20 6.71429C17.7615 6.71429 15.5386 6.78269 13.3334 6.91756V6.66547C13.3334 4.88785 14.6862 3.46967 16.3631 3.41565ZM15.5747 16.7212C15.5394 15.7948 14.765 15.0728 13.8453 15.1084C12.9255 15.144 12.2085 15.9239 12.2439 16.8502L13.0131 36.9931C13.0485 37.9194 13.8228 38.6415 14.7426 38.6059C15.6624 38.5703 16.3793 37.7904 16.3439 36.8641L15.5747 16.7212ZM27.754 16.8502C27.7894 15.9239 27.0725 15.144 26.1527 15.1084C25.2329 15.0728 24.4586 15.7948 24.4232 16.7212L23.654 36.8641C23.6186 37.7904 24.3356 38.5703 25.2554 38.6059C26.1751 38.6415 26.9494 37.9194 26.9848 36.9931L27.754 16.8502Z" fill="#6DBA0D"/>
</svg>
