<svg width="115" height="24" viewBox="0 0 115 24" fill="none" xmlns="http://www.w3.org/2000/svg">
<path d="M45.96 9.4375H43.4714C43.426 9.11553 43.3332 8.82955 43.193 8.57955C43.0529 8.32576 42.8729 8.10985 42.6532 7.93182C42.4335 7.75379 42.1797 7.61742 41.8919 7.52273C41.6078 7.42803 41.2991 7.38068 40.9657 7.38068C40.3635 7.38068 39.8388 7.5303 39.3919 7.82955C38.9449 8.125 38.5983 8.55682 38.3521 9.125C38.1059 9.68939 37.9828 10.375 37.9828 11.1818C37.9828 12.0114 38.1059 12.7083 38.3521 13.2727C38.6021 13.8371 38.9506 14.2633 39.3975 14.5511C39.8445 14.839 40.3616 14.983 40.9487 14.983C41.2782 14.983 41.5832 14.9394 41.8635 14.8523C42.1476 14.7652 42.3994 14.6383 42.6191 14.4716C42.8388 14.3011 43.0207 14.0947 43.1646 13.8523C43.3123 13.6098 43.4146 13.3333 43.4714 13.0227L45.96 13.0341C45.8957 13.5682 45.7347 14.0833 45.4771 14.5795C45.2233 15.072 44.8805 15.5133 44.4487 15.9034C44.0207 16.2898 43.5093 16.5966 42.9146 16.8239C42.3237 17.0473 41.6551 17.1591 40.9089 17.1591C39.871 17.1591 38.943 16.9242 38.1248 16.4545C37.3104 15.9848 36.6665 15.3049 36.193 14.4148C35.7233 13.5246 35.4885 12.447 35.4885 11.1818C35.4885 9.91288 35.7271 8.83333 36.2044 7.94318C36.6816 7.05303 37.3294 6.375 38.1475 5.90909C38.9657 5.43939 39.8862 5.20455 40.9089 5.20455C41.5832 5.20455 42.2082 5.29924 42.7839 5.48864C43.3635 5.67803 43.8767 5.95455 44.3237 6.31818C44.7707 6.67803 45.1343 7.11932 45.4146 7.64205C45.6987 8.16477 45.8805 8.76326 45.96 9.4375ZM50.1674 17.1648C49.6106 17.1648 49.1144 17.0682 48.6788 16.875C48.2432 16.678 47.8985 16.3883 47.6447 16.0057C47.3947 15.6193 47.2697 15.1383 47.2697 14.5625C47.2697 14.0777 47.3587 13.6705 47.5368 13.3409C47.7148 13.0114 47.9572 12.7462 48.264 12.5455C48.5708 12.3447 48.9193 12.1932 49.3095 12.0909C49.7034 11.9886 50.1163 11.9167 50.5481 11.875C51.0557 11.822 51.4648 11.7727 51.7754 11.7273C52.086 11.678 52.3114 11.6061 52.4515 11.5114C52.5917 11.4167 52.6618 11.2765 52.6618 11.0909V11.0568C52.6618 10.697 52.5481 10.4186 52.3208 10.2216C52.0974 10.0246 51.7792 9.92614 51.3663 9.92614C50.9307 9.92614 50.5841 10.0227 50.3265 10.2159C50.069 10.4053 49.8985 10.6439 49.8152 10.9318L47.5765 10.75C47.6902 10.2197 47.9136 9.76136 48.247 9.375C48.5803 8.98485 49.0102 8.68561 49.5368 8.47727C50.0671 8.26515 50.6807 8.15909 51.3777 8.15909C51.8625 8.15909 52.3265 8.21591 52.7697 8.32955C53.2167 8.44318 53.6125 8.61932 53.9572 8.85795C54.3057 9.09659 54.5803 9.40341 54.7811 9.77841C54.9818 10.1496 55.0822 10.5947 55.0822 11.1136V17H52.7868V15.7898H52.7186C52.5784 16.0625 52.3909 16.303 52.1561 16.5114C51.9212 16.7159 51.639 16.8769 51.3095 16.9943C50.9799 17.108 50.5993 17.1648 50.1674 17.1648ZM50.8606 15.4943C51.2167 15.4943 51.5311 15.4242 51.8038 15.2841C52.0765 15.1402 52.2905 14.947 52.4458 14.7045C52.6011 14.4621 52.6788 14.1875 52.6788 13.8807V12.9545C52.603 13.0038 52.4989 13.0492 52.3663 13.0909C52.2375 13.1288 52.0917 13.1648 51.9288 13.1989C51.7659 13.2292 51.603 13.2576 51.4402 13.2841C51.2773 13.3068 51.1296 13.3277 50.997 13.3466C50.7129 13.3883 50.4648 13.4545 50.2527 13.5455C50.0405 13.6364 49.8758 13.7595 49.7583 13.9148C49.6409 14.0663 49.5822 14.2557 49.5822 14.483C49.5822 14.8125 49.7015 15.0644 49.9402 15.2386C50.1826 15.4091 50.4894 15.4943 50.8606 15.4943ZM59.3805 11.9545V17H56.96V8.27273H59.2669V9.8125H59.3691C59.5623 9.30492 59.8862 8.90341 60.3407 8.60795C60.7953 8.30871 61.3464 8.15909 61.9941 8.15909C62.6002 8.15909 63.1286 8.29167 63.5794 8.55682C64.0301 8.82197 64.3805 9.20076 64.6305 9.69318C64.8805 10.1818 65.0055 10.7652 65.0055 11.4432V17H62.5851V11.875C62.5888 11.3409 62.4525 10.9242 62.176 10.625C61.8994 10.322 61.5188 10.1705 61.0339 10.1705C60.7082 10.1705 60.4203 10.2405 60.1703 10.3807C59.9241 10.5208 59.7309 10.7254 59.5907 10.9943C59.4544 11.2595 59.3843 11.5795 59.3805 11.9545ZM70.8564 17.1705C69.9624 17.1705 69.1935 16.9811 68.5495 16.6023C67.9094 16.2197 67.417 15.6894 67.0723 15.0114C66.7314 14.3333 66.5609 13.553 66.5609 12.6705C66.5609 11.7765 66.7333 10.9924 67.0779 10.3182C67.4264 9.64015 67.9208 9.11174 68.5609 8.73295C69.2011 8.35038 69.9624 8.15909 70.845 8.15909C71.6064 8.15909 72.273 8.29735 72.845 8.57386C73.417 8.85038 73.8696 9.23864 74.2029 9.73864C74.5363 10.2386 74.72 10.8258 74.7541 11.5H72.47C72.4056 11.0644 72.2351 10.714 71.9586 10.4489C71.6859 10.1799 71.3279 10.0455 70.8848 10.0455C70.5098 10.0455 70.1821 10.1477 69.9018 10.3523C69.6253 10.553 69.4094 10.8466 69.2541 11.233C69.0988 11.6193 69.0211 12.0871 69.0211 12.6364C69.0211 13.1932 69.0969 13.6667 69.2484 14.0568C69.4037 14.447 69.6215 14.7443 69.9018 14.9489C70.1821 15.1534 70.5098 15.2557 70.8848 15.2557C71.1613 15.2557 71.4094 15.1989 71.6291 15.0852C71.8526 14.9716 72.0363 14.8068 72.1802 14.5909C72.3279 14.3712 72.4245 14.108 72.47 13.8011H74.7541C74.7162 14.4678 74.5344 15.0549 74.2086 15.5625C73.8867 16.0663 73.4416 16.4602 72.8734 16.7443C72.3052 17.0284 71.6329 17.1705 70.8564 17.1705ZM80.2811 17.1705C79.3833 17.1705 78.6106 16.9886 77.9629 16.625C77.319 16.2576 76.8227 15.7386 76.4743 15.0682C76.1258 14.3939 75.9515 13.5966 75.9515 12.6761C75.9515 11.7784 76.1258 10.9905 76.4743 10.3125C76.8227 9.63447 77.3133 9.10606 77.9458 8.72727C78.5822 8.34848 79.3284 8.15909 80.1845 8.15909C80.7602 8.15909 81.2962 8.25189 81.7924 8.4375C82.2924 8.61932 82.728 8.89394 83.0993 9.26136C83.4743 9.62879 83.7659 10.0909 83.9743 10.6477C84.1826 11.2008 84.2868 11.8485 84.2868 12.5909V13.2557H76.9174V11.7557H82.0083C82.0083 11.4072 81.9326 11.0985 81.7811 10.8295C81.6296 10.5606 81.4193 10.3504 81.1504 10.1989C80.8852 10.0436 80.5765 9.96591 80.2243 9.96591C79.8568 9.96591 79.5311 10.0511 79.247 10.2216C78.9667 10.3883 78.747 10.6136 78.5879 10.8977C78.4288 11.178 78.3474 11.4905 78.3436 11.8352V13.2614C78.3436 13.6932 78.4231 14.0663 78.5822 14.3807C78.7451 14.6951 78.9743 14.9375 79.2697 15.108C79.5652 15.2784 79.9155 15.3636 80.3208 15.3636C80.5898 15.3636 80.836 15.3258 81.0595 15.25C81.283 15.1742 81.4743 15.0606 81.6333 14.9091C81.7924 14.7576 81.9136 14.572 81.997 14.3523L84.2356 14.5C84.122 15.0379 83.889 15.5076 83.5368 15.9091C83.1883 16.3068 82.7375 16.6174 82.1845 16.8409C81.6352 17.0606 81.0008 17.1705 80.2811 17.1705ZM88.2868 5.36364V17H85.8663V5.36364H88.2868ZM92.7143 17.1648C92.1575 17.1648 91.6613 17.0682 91.2257 16.875C90.7901 16.678 90.4454 16.3883 90.1916 16.0057C89.9416 15.6193 89.8166 15.1383 89.8166 14.5625C89.8166 14.0777 89.9056 13.6705 90.0836 13.3409C90.2617 13.0114 90.5041 12.7462 90.8109 12.5455C91.1177 12.3447 91.4662 12.1932 91.8564 12.0909C92.2503 11.9886 92.6632 11.9167 93.095 11.875C93.6026 11.822 94.0117 11.7727 94.3223 11.7273C94.6329 11.678 94.8583 11.6061 94.9984 11.5114C95.1386 11.4167 95.2086 11.2765 95.2086 11.0909V11.0568C95.2086 10.697 95.095 10.4186 94.8677 10.2216C94.6442 10.0246 94.3261 9.92614 93.9132 9.92614C93.4776 9.92614 93.131 10.0227 92.8734 10.2159C92.6158 10.4053 92.4454 10.6439 92.362 10.9318L90.1234 10.75C90.237 10.2197 90.4605 9.76136 90.7939 9.375C91.1272 8.98485 91.5571 8.68561 92.0836 8.47727C92.6139 8.26515 93.2276 8.15909 93.9245 8.15909C94.4094 8.15909 94.8734 8.21591 95.3166 8.32955C95.7636 8.44318 96.1594 8.61932 96.5041 8.85795C96.8526 9.09659 97.1272 9.40341 97.3279 9.77841C97.5287 10.1496 97.6291 10.5947 97.6291 11.1136V17H95.3336V15.7898H95.2654C95.1253 16.0625 94.9378 16.303 94.7029 16.5114C94.4681 16.7159 94.1859 16.8769 93.8564 16.9943C93.5268 17.108 93.1461 17.1648 92.7143 17.1648ZM93.4075 15.4943C93.7636 15.4943 94.0779 15.4242 94.3507 15.2841C94.6234 15.1402 94.8374 14.947 94.9927 14.7045C95.148 14.4621 95.2257 14.1875 95.2257 13.8807V12.9545C95.1499 13.0038 95.0458 13.0492 94.9132 13.0909C94.7844 13.1288 94.6386 13.1648 94.4757 13.1989C94.3128 13.2292 94.1499 13.2576 93.987 13.2841C93.8242 13.3068 93.6764 13.3277 93.5439 13.3466C93.2598 13.3883 93.0117 13.4545 92.7995 13.5455C92.5874 13.6364 92.4226 13.7595 92.3052 13.9148C92.1878 14.0663 92.1291 14.2557 92.1291 14.483C92.1291 14.8125 92.2484 15.0644 92.487 15.2386C92.7295 15.4091 93.0363 15.4943 93.4075 15.4943ZM99.5069 17V8.27273H101.854V9.79545H101.944C102.104 9.25379 102.371 8.8447 102.746 8.56818C103.121 8.28788 103.552 8.14773 104.041 8.14773C104.162 8.14773 104.293 8.1553 104.433 8.17045C104.573 8.18561 104.696 8.20644 104.802 8.23295V10.3807C104.689 10.3466 104.532 10.3163 104.331 10.2898C104.13 10.2633 103.946 10.25 103.78 10.25C103.424 10.25 103.105 10.3277 102.825 10.483C102.549 10.6345 102.329 10.8466 102.166 11.1193C102.007 11.392 101.927 11.7064 101.927 12.0625V17H99.5069Z" fill="white"/>
<path fill-rule="evenodd" clip-rule="evenodd" d="M5.74844 5.46967C6.05626 5.17678 6.55533 5.17678 6.86315 5.46967L12.6115 10.9393L18.3599 5.46967C18.6677 5.17678 19.1668 5.17678 19.4746 5.46967C19.7824 5.76256 19.7824 6.23744 19.4746 6.53033L13.7262 12L19.4746 17.4697C19.7824 17.7626 19.7824 18.2374 19.4746 18.5303C19.1668 18.8232 18.6677 18.8232 18.3599 18.5303L12.6115 13.0607L6.86315 18.5303C6.55533 18.8232 6.05626 18.8232 5.74844 18.5303C5.44062 18.2374 5.44062 17.7626 5.74844 17.4697L11.4968 12L5.74844 6.53033C5.44062 6.23744 5.44062 5.76256 5.74844 5.46967Z" fill="white"/>
</svg>
