<svg width="79" height="24" viewBox="0 0 79 24" fill="none" xmlns="http://www.w3.org/2000/svg">
<path fill-rule="evenodd" clip-rule="evenodd" d="M5.47812 5.55887C5.67178 4.92948 6.25329 4.5 6.91179 4.5H9C9.41421 4.5 9.75 4.16421 9.75 3.75C9.75 3.33579 9.41421 3 9 3H6.91179C5.59478 3 4.43177 3.85897 4.04446 5.11774L1.63266 12.9561C1.54472 13.2419 1.5 13.5393 1.5 13.8383V18C1.5 19.6569 2.84315 21 4.5 21H19.5C21.1569 21 22.5 19.6569 22.5 18V13.8383C22.5 13.5393 22.4553 13.2419 22.3673 12.9561L19.9555 5.11774C19.5682 3.85897 18.4052 3 17.0882 3H15C14.5858 3 14.25 3.33579 14.25 3.75C14.25 4.16421 14.5858 4.5 15 4.5H17.0882C17.7467 4.5 18.3282 4.92948 18.5219 5.55887L20.7345 12.75H17.8906C16.7543 12.75 15.7155 13.392 15.2073 14.4084L14.9511 14.9208C14.697 15.429 14.1776 15.75 13.6094 15.75H10.3906C9.82242 15.75 9.30302 15.429 9.04894 14.9208L8.79271 14.4084C8.28453 13.392 7.24574 12.75 6.10942 12.75H3.26547L5.47812 5.55887Z" fill="white"/>
<path fill-rule="evenodd" clip-rule="evenodd" d="M12 2.25C12.4142 2.25 12.75 2.58579 12.75 3V9.43934L14.4697 7.71967C14.7626 7.42678 15.2374 7.42678 15.5303 7.71967C15.8232 8.01256 15.8232 8.48744 15.5303 8.78033L12.5303 11.7803C12.2374 12.0732 11.7626 12.0732 11.4697 11.7803L8.46967 8.78033C8.17678 8.48744 8.17678 8.01256 8.46967 7.71967C8.76256 7.42678 9.23744 7.42678 9.53033 7.71967L11.25 9.43934V3C11.25 2.58579 11.5858 2.25 12 2.25Z" fill="white"/>
<path d="M36.3239 9.21023C36.2784 8.75189 36.0833 8.39583 35.7386 8.14205C35.3939 7.88826 34.9261 7.76136 34.3352 7.76136C33.9337 7.76136 33.5947 7.81818 33.3182 7.93182C33.0417 8.04167 32.8295 8.19508 32.6818 8.39205C32.5379 8.58902 32.4659 8.8125 32.4659 9.0625C32.4583 9.27083 32.5019 9.45265 32.5966 9.60795C32.6951 9.76326 32.8295 9.89773 33 10.0114C33.1705 10.1212 33.3674 10.2178 33.5909 10.3011C33.8144 10.3807 34.053 10.4489 34.3068 10.5057L35.3523 10.7557C35.8598 10.8693 36.3258 11.0208 36.75 11.2102C37.1742 11.3996 37.5417 11.6326 37.8523 11.9091C38.1629 12.1856 38.4034 12.5114 38.5739 12.8864C38.7481 13.2614 38.8371 13.6913 38.8409 14.1761C38.8371 14.8883 38.6553 15.5057 38.2955 16.0284C37.9394 16.5473 37.4242 16.9508 36.75 17.2386C36.0795 17.5227 35.2708 17.6648 34.3239 17.6648C33.3845 17.6648 32.5663 17.5208 31.8693 17.233C31.1761 16.9451 30.6345 16.5189 30.2443 15.9545C29.858 15.3864 29.6553 14.6837 29.6364 13.8466H32.017C32.0436 14.2367 32.1553 14.5625 32.3523 14.8239C32.553 15.0814 32.8201 15.2765 33.1534 15.4091C33.4905 15.5379 33.8712 15.6023 34.2955 15.6023C34.7121 15.6023 35.0739 15.5417 35.3807 15.4205C35.6913 15.2992 35.9318 15.1307 36.1023 14.9148C36.2727 14.6989 36.358 14.4508 36.358 14.1705C36.358 13.9091 36.2803 13.6894 36.125 13.5114C35.9735 13.3333 35.75 13.1818 35.4545 13.0568C35.1629 12.9318 34.8049 12.8182 34.3807 12.7159L33.1136 12.3977C32.1326 12.1591 31.358 11.786 30.7898 11.2784C30.2216 10.7708 29.9394 10.0871 29.9432 9.22727C29.9394 8.52273 30.1269 7.9072 30.5057 7.38068C30.8883 6.85417 31.4129 6.44318 32.0795 6.14773C32.7462 5.85227 33.5038 5.70455 34.3523 5.70455C35.2159 5.70455 35.9697 5.85227 36.6136 6.14773C37.2614 6.44318 37.7652 6.85417 38.125 7.38068C38.4848 7.9072 38.6705 8.51705 38.6818 9.21023H36.3239ZM42.9389 17.6648C42.3821 17.6648 41.8859 17.5682 41.4503 17.375C41.0147 17.178 40.67 16.8883 40.4162 16.5057C40.1662 16.1193 40.0412 15.6383 40.0412 15.0625C40.0412 14.5777 40.1302 14.1705 40.3082 13.8409C40.4863 13.5114 40.7287 13.2462 41.0355 13.0455C41.3423 12.8447 41.6908 12.6932 42.081 12.5909C42.4749 12.4886 42.8878 12.4167 43.3196 12.375C43.8272 12.322 44.2363 12.2727 44.5469 12.2273C44.8575 12.178 45.0829 12.1061 45.223 12.0114C45.3632 11.9167 45.4332 11.7765 45.4332 11.5909V11.5568C45.4332 11.197 45.3196 10.9186 45.0923 10.7216C44.8688 10.5246 44.5507 10.4261 44.1378 10.4261C43.7022 10.4261 43.3556 10.5227 43.098 10.7159C42.8404 10.9053 42.67 11.1439 42.5866 11.4318L40.348 11.25C40.4616 10.7197 40.6851 10.2614 41.0185 9.875C41.3518 9.48485 41.7817 9.18561 42.3082 8.97727C42.8385 8.76515 43.4522 8.65909 44.1491 8.65909C44.634 8.65909 45.098 8.71591 45.5412 8.82955C45.9882 8.94318 46.384 9.11932 46.7287 9.35795C47.0772 9.59659 47.3518 9.90341 47.5526 10.2784C47.7533 10.6496 47.8537 11.0947 47.8537 11.6136V17.5H45.5582V16.2898H45.4901C45.3499 16.5625 45.1624 16.803 44.9276 17.0114C44.6927 17.2159 44.4105 17.3769 44.081 17.4943C43.7514 17.608 43.3707 17.6648 42.9389 17.6648ZM43.6321 15.9943C43.9882 15.9943 44.3026 15.9242 44.5753 15.7841C44.848 15.6402 45.062 15.447 45.2173 15.2045C45.3726 14.9621 45.4503 14.6875 45.4503 14.3807V13.4545C45.3745 13.5038 45.2704 13.5492 45.1378 13.5909C45.009 13.6288 44.8632 13.6648 44.7003 13.6989C44.5374 13.7292 44.3745 13.7576 44.2116 13.7841C44.0488 13.8068 43.901 13.8277 43.7685 13.8466C43.4844 13.8883 43.2363 13.9545 43.0241 14.0455C42.812 14.1364 42.6473 14.2595 42.5298 14.4148C42.4124 14.5663 42.3537 14.7557 42.3537 14.983C42.3537 15.3125 42.473 15.5644 42.7116 15.7386C42.9541 15.9091 43.2609 15.9943 43.6321 15.9943ZM52.152 5.86364V17.5H49.7315V5.86364H52.152ZM62.2273 8.77273L59.1761 17.5H56.4489L53.3977 8.77273H55.9545L57.767 15.017H57.858L59.6648 8.77273H62.2273ZM65.7202 17.6648C65.1634 17.6648 64.6671 17.5682 64.2315 17.375C63.7959 17.178 63.4512 16.8883 63.1974 16.5057C62.9474 16.1193 62.8224 15.6383 62.8224 15.0625C62.8224 14.5777 62.9115 14.1705 63.0895 13.8409C63.2675 13.5114 63.5099 13.2462 63.8168 13.0455C64.1236 12.8447 64.4721 12.6932 64.8622 12.5909C65.2562 12.4886 65.669 12.4167 66.1009 12.375C66.6084 12.322 67.0175 12.2727 67.3281 12.2273C67.6387 12.178 67.8641 12.1061 68.0043 12.0114C68.1444 11.9167 68.2145 11.7765 68.2145 11.5909V11.5568C68.2145 11.197 68.1009 10.9186 67.8736 10.7216C67.6501 10.5246 67.3319 10.4261 66.919 10.4261C66.4834 10.4261 66.1368 10.5227 65.8793 10.7159C65.6217 10.9053 65.4512 11.1439 65.3679 11.4318L63.1293 11.25C63.2429 10.7197 63.4664 10.2614 63.7997 9.875C64.133 9.48485 64.563 9.18561 65.0895 8.97727C65.6198 8.76515 66.2334 8.65909 66.9304 8.65909C67.4152 8.65909 67.8793 8.71591 68.3224 8.82955C68.7694 8.94318 69.1652 9.11932 69.5099 9.35795C69.8584 9.59659 70.133 9.90341 70.3338 10.2784C70.5346 10.6496 70.6349 11.0947 70.6349 11.6136V17.5H68.3395V16.2898H68.2713C68.1312 16.5625 67.9437 16.803 67.7088 17.0114C67.474 17.2159 67.1918 17.3769 66.8622 17.4943C66.5327 17.608 66.152 17.6648 65.7202 17.6648ZM66.4134 15.9943C66.7694 15.9943 67.0838 15.9242 67.3565 15.7841C67.6293 15.6402 67.8433 15.447 67.9986 15.2045C68.1539 14.9621 68.2315 14.6875 68.2315 14.3807V13.4545C68.1558 13.5038 68.0516 13.5492 67.919 13.5909C67.7902 13.6288 67.6444 13.6648 67.4815 13.6989C67.3187 13.7292 67.1558 13.7576 66.9929 13.7841C66.83 13.8068 66.6823 13.8277 66.5497 13.8466C66.2656 13.8883 66.0175 13.9545 65.8054 14.0455C65.5933 14.1364 65.4285 14.2595 65.3111 14.4148C65.1937 14.5663 65.1349 14.7557 65.1349 14.983C65.1349 15.3125 65.2543 15.5644 65.4929 15.7386C65.7353 15.9091 66.0421 15.9943 66.4134 15.9943ZM72.5128 17.5V8.77273H74.8594V10.2955H74.9503C75.1094 9.75379 75.3764 9.3447 75.7514 9.06818C76.1264 8.78788 76.5582 8.64773 77.0469 8.64773C77.1681 8.64773 77.2988 8.6553 77.4389 8.67045C77.5791 8.68561 77.7022 8.70644 77.8082 8.73295V10.8807C77.6946 10.8466 77.5374 10.8163 77.3366 10.7898C77.1359 10.7633 76.9522 10.75 76.7855 10.75C76.4295 10.75 76.1113 10.8277 75.831 10.983C75.5545 11.1345 75.3348 11.3466 75.1719 11.6193C75.0128 11.892 74.9332 12.2064 74.9332 12.5625V17.5H72.5128Z" fill="white"/>
</svg>
